<?xml version="1.0" encoding="utf-8"?><svg width="auto" height="3220" style="overflow:visible " version="1.1" xmlns="http://www.w3.org/2000/svg"><rect x="20" y="20" width="200" height="40" style="fill:white;stroke:black;stroke-width:1" /><text x="30" y="30" font-size="10" style="fill:blue">xs:schema</text><text x="30" y="40" font-size="8" style="fill:black">xmlns:xs: http://www.w3.org/2001/XMLSchema</text><text x="30" y="50" font-size="8" style="fill:black">targetNamespace: http://www.uniovi.es</text><text x="30" y="60" font-size="8" style="fill:black">xmlns: http://www.uniovi.es</text><text x="30" y="70" font-size="8" style="fill:black">elementFormDefault: qualified</text><rect x="240" y="20" width="200" height="40" style="fill:white;stroke:black;stroke-width:1" /><text x="250" y="30" font-size="10" style="fill:blue">xs:element</text><path d="M220 40 C240 40 220 40 240 40" style="fill:transparent;stroke:black" /><text x="250" y="40" font-size="8" style="fill:black">name: circuito</text><rect x="460" y="20" width="200" height="40" style="fill:white;stroke:black;stroke-width:1" /><text x="470" y="30" font-size="10" style="fill:blue">xs:complexType</text><path d="M440 40 C460 40 440 40 460 40" style="fill:transparent;stroke:black" /><rect x="680" y="20" width="200" height="40" style="fill:white;stroke:black;stroke-width:1" /><text x="690" y="30" font-size="10" style="fill:blue">xs:sequence</text><path d="M660 40 C680 40 660 40 680 40" style="fill:transparent;stroke:black" /><rect x="900" y="20" width="200" height="40" style="fill:white;stroke:black;stroke-width:1" /><text x="910" y="30" font-size="10" style="fill:blue">xs:element</text><path d="M880 40 C900 40 880 40 900 40" style="fill:transparent;stroke:black" /><text x="910" y="40" font-size="8" style="fill:black">ref: referencias</text><rect x="900" y="70" width="200" height="40" style="fill:white;stroke:black;stroke-width:1" /><text x="910" y="80" font-size="10" style="fill:blue">xs:element</text><path d="M880 40 C900 40 880 90 900 90" style="fill:transparent;stroke:black" /><text x="910" y="90" font-size="8" style="fill:black">ref: galeriaFotografia</text><rect x="900" y="120" width="200" height="40" style="fill:white;stroke:black;stroke-width:1" /><text x="910" y="130" font-size="10" style="fill:blue">xs:element</text><path d="M880 40 C900 40 880 140 900 140" style="fill:transparent;stroke:black" /><text x="910" y="140" font-size="8" style="fill:black">minOccurs: 0</text><text x="910" y="150" font-size="8" style="fill:black">maxOccurs: 1</text><text x="910" y="160" font-size="8" style="fill:black">ref: galeriaVideo</text><rect x="900" y="170" width="200" height="40" style="fill:white;stroke:black;stroke-width:1" /><text x="910" y="180" font-size="10" style="fill:blue">xs:element</text><path d="M880 40 C900 40 880 190 900 190" style="fill:transparent;stroke:black" /><text x="910" y="190" font-size="8" style="fill:black">ref: coordenadas</text><rect x="900" y="220" width="200" height="40" style="fill:white;stroke:black;stroke-width:1" /><text x="910" y="230" font-size="10" style="fill:blue">xs:element</text><path d="M880 40 C900 40 880 240 900 240" style="fill:transparent;stroke:black" /><text x="910" y="240" font-size="8" style="fill:black">ref: puntosCircuito</text><rect x="680" y="320" width="200" height="40" style="fill:white;stroke:black;stroke-width:1" /><text x="690" y="330" font-size="10" style="fill:blue">xs:attribute</text><path d="M660 40 C680 40 660 340 680 340" style="fill:transparent;stroke:black" /><text x="690" y="340" font-size="8" style="fill:black">name: nombre</text><text x="690" y="350" font-size="8" style="fill:black">type: xs:string</text><text x="690" y="360" font-size="8" style="fill:black">use: required</text><rect x="680" y="370" width="200" height="40" style="fill:white;stroke:black;stroke-width:1" /><text x="690" y="380" font-size="10" style="fill:blue">xs:attribute</text><path d="M660 40 C680 40 660 390 680 390" style="fill:transparent;stroke:black" /><text x="690" y="390" font-size="8" style="fill:black">name: longitud</text><text x="690" y="400" font-size="8" style="fill:black">type: xs:integer</text><text x="690" y="410" font-size="8" style="fill:black">use: required</text><rect x="680" y="420" width="200" height="40" style="fill:white;stroke:black;stroke-width:1" /><text x="690" y="430" font-size="10" style="fill:blue">xs:attribute</text><path d="M660 40 C680 40 660 440 680 440" style="fill:transparent;stroke:black" /><text x="690" y="440" font-size="8" style="fill:black">name: anchuraMedia</text><text x="690" y="450" font-size="8" style="fill:black">type: xs:string</text><text x="690" y="460" font-size="8" style="fill:black">use: required</text><rect x="680" y="470" width="200" height="40" style="fill:white;stroke:black;stroke-width:1" /><text x="690" y="480" font-size="10" style="fill:blue">xs:attribute</text><path d="M660 40 C680 40 660 490 680 490" style="fill:transparent;stroke:black" /><text x="690" y="490" font-size="8" style="fill:black">name: fecha</text><text x="690" y="500" font-size="8" style="fill:black">type: xs:date</text><text x="690" y="510" font-size="8" style="fill:black">use: required</text><rect x="680" y="520" width="200" height="40" style="fill:white;stroke:black;stroke-width:1" /><text x="690" y="530" font-size="10" style="fill:blue">xs:attribute</text><path d="M660 40 C680 40 660 540 680 540" style="fill:transparent;stroke:black" /><text x="690" y="540" font-size="8" style="fill:black">name: horaInicio</text><text x="690" y="550" font-size="8" style="fill:black">type: xs:time</text><text x="690" y="560" font-size="8" style="fill:black">use: required</text><rect x="680" y="570" width="200" height="40" style="fill:white;stroke:black;stroke-width:1" /><text x="690" y="580" font-size="10" style="fill:blue">xs:attribute</text><path d="M660 40 C680 40 660 590 680 590" style="fill:transparent;stroke:black" /><text x="690" y="590" font-size="8" style="fill:black">name: numeroVueltas</text><text x="690" y="600" font-size="8" style="fill:black">type: xs:integer</text><text x="690" y="610" font-size="8" style="fill:black">use: required</text><rect x="680" y="620" width="200" height="40" style="fill:white;stroke:black;stroke-width:1" /><text x="690" y="630" font-size="10" style="fill:blue">xs:attribute</text><path d="M660 40 C680 40 660 640 680 640" style="fill:transparent;stroke:black" /><text x="690" y="640" font-size="8" style="fill:black">name: localidad</text><text x="690" y="650" font-size="8" style="fill:black">type: xs:string</text><text x="690" y="660" font-size="8" style="fill:black">use: required</text><rect x="680" y="670" width="200" height="40" style="fill:white;stroke:black;stroke-width:1" /><text x="690" y="680" font-size="10" style="fill:blue">xs:attribute</text><path d="M660 40 C680 40 660 690 680 690" style="fill:transparent;stroke:black" /><text x="690" y="690" font-size="8" style="fill:black">name: pais</text><text x="690" y="700" font-size="8" style="fill:black">type: xs:string</text><text x="690" y="710" font-size="8" style="fill:black">use: required</text><rect x="240" y="820" width="200" height="40" style="fill:white;stroke:black;stroke-width:1" /><text x="250" y="830" font-size="10" style="fill:blue">xs:element</text><path d="M220 40 C240 40 220 840 240 840" style="fill:transparent;stroke:black" /><text x="250" y="840" font-size="8" style="fill:black">name: referencias</text><rect x="460" y="820" width="200" height="40" style="fill:white;stroke:black;stroke-width:1" /><text x="470" y="830" font-size="10" style="fill:blue">xs:complexType</text><path d="M440 840 C460 840 440 840 460 840" style="fill:transparent;stroke:black" /><rect x="680" y="820" width="200" height="40" style="fill:white;stroke:black;stroke-width:1" /><text x="690" y="830" font-size="10" style="fill:blue">xs:sequence</text><path d="M660 840 C680 840 660 840 680 840" style="fill:transparent;stroke:black" /><rect x="900" y="820" width="200" height="40" style="fill:white;stroke:black;stroke-width:1" /><text x="910" y="830" font-size="10" style="fill:blue">xs:element</text><path d="M880 840 C900 840 880 840 900 840" style="fill:transparent;stroke:black" /><text x="910" y="840" font-size="8" style="fill:black">minOccurs: 3</text><text x="910" y="850" font-size="8" style="fill:black">maxOccurs: unbounded</text><text x="910" y="860" font-size="8" style="fill:black">ref: referencia</text><rect x="240" y="1020" width="200" height="40" style="fill:white;stroke:black;stroke-width:1" /><text x="250" y="1030" font-size="10" style="fill:blue">xs:element</text><path d="M220 40 C240 40 220 1040 240 1040" style="fill:transparent;stroke:black" /><text x="250" y="1040" font-size="8" style="fill:black">name: referencia</text><text x="250" y="1050" font-size="8" style="fill:black">type: xs:string</text><rect x="240" y="1070" width="200" height="40" style="fill:white;stroke:black;stroke-width:1" /><text x="250" y="1080" font-size="10" style="fill:blue">xs:element</text><path d="M220 40 C240 40 220 1090 240 1090" style="fill:transparent;stroke:black" /><text x="250" y="1090" font-size="8" style="fill:black">name: galeriaFotografia</text><rect x="460" y="1070" width="200" height="40" style="fill:white;stroke:black;stroke-width:1" /><text x="470" y="1080" font-size="10" style="fill:blue">xs:complexType</text><path d="M440 1090 C460 1090 440 1090 460 1090" style="fill:transparent;stroke:black" /><rect x="680" y="1070" width="200" height="40" style="fill:white;stroke:black;stroke-width:1" /><text x="690" y="1080" font-size="10" style="fill:blue">xs:sequence</text><path d="M660 1090 C680 1090 660 1090 680 1090" style="fill:transparent;stroke:black" /><rect x="900" y="1070" width="200" height="40" style="fill:white;stroke:black;stroke-width:1" /><text x="910" y="1080" font-size="10" style="fill:blue">xs:element</text><path d="M880 1090 C900 1090 880 1090 900 1090" style="fill:transparent;stroke:black" /><text x="910" y="1090" font-size="8" style="fill:black">minOccurs: 1</text><text x="910" y="1100" font-size="8" style="fill:black">maxOccurs: 5</text><text x="910" y="1110" font-size="8" style="fill:black">ref: fotografia</text><rect x="240" y="1270" width="200" height="40" style="fill:white;stroke:black;stroke-width:1" /><text x="250" y="1280" font-size="10" style="fill:blue">xs:element</text><path d="M220 40 C240 40 220 1290 240 1290" style="fill:transparent;stroke:black" /><text x="250" y="1290" font-size="8" style="fill:black">name: fotografia</text><rect x="460" y="1270" width="200" height="40" style="fill:white;stroke:black;stroke-width:1" /><text x="470" y="1280" font-size="10" style="fill:blue">xs:complexType</text><path d="M440 1290 C460 1290 440 1290 460 1290" style="fill:transparent;stroke:black" /><rect x="680" y="1270" width="200" height="40" style="fill:white;stroke:black;stroke-width:1" /><text x="690" y="1280" font-size="10" style="fill:blue">xs:simpleContent</text><path d="M660 1290 C680 1290 660 1290 680 1290" style="fill:transparent;stroke:black" /><rect x="900" y="1270" width="200" height="40" style="fill:white;stroke:black;stroke-width:1" /><text x="910" y="1280" font-size="10" style="fill:blue">xs:extension</text><path d="M880 1290 C900 1290 880 1290 900 1290" style="fill:transparent;stroke:black" /><text x="910" y="1290" font-size="8" style="fill:black">base: xs:string</text><rect x="1120" y="1270" width="200" height="40" style="fill:white;stroke:black;stroke-width:1" /><text x="1130" y="1280" font-size="10" style="fill:blue">xs:attribute</text><path d="M1100 1290 C1120 1290 1100 1290 1120 1290" style="fill:transparent;stroke:black" /><text x="1130" y="1290" font-size="8" style="fill:black">name: nombre</text><text x="1130" y="1300" font-size="8" style="fill:black">type: xs:string</text><text x="1130" y="1310" font-size="8" style="fill:black">use: required</text><rect x="240" y="1520" width="200" height="40" style="fill:white;stroke:black;stroke-width:1" /><text x="250" y="1530" font-size="10" style="fill:blue">xs:element</text><path d="M220 40 C240 40 220 1540 240 1540" style="fill:transparent;stroke:black" /><text x="250" y="1540" font-size="8" style="fill:black">name: galeriaVideo</text><rect x="460" y="1520" width="200" height="40" style="fill:white;stroke:black;stroke-width:1" /><text x="470" y="1530" font-size="10" style="fill:blue">xs:complexType</text><path d="M440 1540 C460 1540 440 1540 460 1540" style="fill:transparent;stroke:black" /><rect x="680" y="1520" width="200" height="40" style="fill:white;stroke:black;stroke-width:1" /><text x="690" y="1530" font-size="10" style="fill:blue">xs:sequence</text><path d="M660 1540 C680 1540 660 1540 680 1540" style="fill:transparent;stroke:black" /><rect x="900" y="1520" width="200" height="40" style="fill:white;stroke:black;stroke-width:1" /><text x="910" y="1530" font-size="10" style="fill:blue">xs:element</text><path d="M880 1540 C900 1540 880 1540 900 1540" style="fill:transparent;stroke:black" /><text x="910" y="1540" font-size="8" style="fill:black">minOccurs: 0</text><text x="910" y="1550" font-size="8" style="fill:black">maxOccurs: 3</text><text x="910" y="1560" font-size="8" style="fill:black">ref: video</text><rect x="240" y="1720" width="200" height="40" style="fill:white;stroke:black;stroke-width:1" /><text x="250" y="1730" font-size="10" style="fill:blue">xs:element</text><path d="M220 40 C240 40 220 1740 240 1740" style="fill:transparent;stroke:black" /><text x="250" y="1740" font-size="8" style="fill:black">name: video</text><rect x="460" y="1720" width="200" height="40" style="fill:white;stroke:black;stroke-width:1" /><text x="470" y="1730" font-size="10" style="fill:blue">xs:complexType</text><path d="M440 1740 C460 1740 440 1740 460 1740" style="fill:transparent;stroke:black" /><rect x="680" y="1720" width="200" height="40" style="fill:white;stroke:black;stroke-width:1" /><text x="690" y="1730" font-size="10" style="fill:blue">xs:simpleContent</text><path d="M660 1740 C680 1740 660 1740 680 1740" style="fill:transparent;stroke:black" /><rect x="900" y="1720" width="200" height="40" style="fill:white;stroke:black;stroke-width:1" /><text x="910" y="1730" font-size="10" style="fill:blue">xs:extension</text><path d="M880 1740 C900 1740 880 1740 900 1740" style="fill:transparent;stroke:black" /><text x="910" y="1740" font-size="8" style="fill:black">base: xs:string</text><rect x="1120" y="1720" width="200" height="40" style="fill:white;stroke:black;stroke-width:1" /><text x="1130" y="1730" font-size="10" style="fill:blue">xs:attribute</text><path d="M1100 1740 C1120 1740 1100 1740 1120 1740" style="fill:transparent;stroke:black" /><text x="1130" y="1740" font-size="8" style="fill:black">name: nombre</text><text x="1130" y="1750" font-size="8" style="fill:black">type: xs:string</text><text x="1130" y="1760" font-size="8" style="fill:black">use: required</text><rect x="1120" y="1770" width="200" height="40" style="fill:white;stroke:black;stroke-width:1" /><text x="1130" y="1780" font-size="10" style="fill:blue">xs:attribute</text><path d="M1100 1740 C1120 1740 1100 1790 1120 1790" style="fill:transparent;stroke:black" /><text x="1130" y="1790" font-size="8" style="fill:black">name: src</text><text x="1130" y="1800" font-size="8" style="fill:black">type: xs:string</text><text x="1130" y="1810" font-size="8" style="fill:black">use: required</text><rect x="240" y="2020" width="200" height="40" style="fill:white;stroke:black;stroke-width:1" /><text x="250" y="2030" font-size="10" style="fill:blue">xs:element</text><path d="M220 40 C240 40 220 2040 240 2040" style="fill:transparent;stroke:black" /><text x="250" y="2040" font-size="8" style="fill:black">name: coordenadas</text><rect x="460" y="2020" width="200" height="40" style="fill:white;stroke:black;stroke-width:1" /><text x="470" y="2030" font-size="10" style="fill:blue">xs:complexType</text><path d="M440 2040 C460 2040 440 2040 460 2040" style="fill:transparent;stroke:black" /><rect x="680" y="2020" width="200" height="40" style="fill:white;stroke:black;stroke-width:1" /><text x="690" y="2030" font-size="10" style="fill:blue">xs:simpleContent</text><path d="M660 2040 C680 2040 660 2040 680 2040" style="fill:transparent;stroke:black" /><rect x="900" y="2020" width="200" height="40" style="fill:white;stroke:black;stroke-width:1" /><text x="910" y="2030" font-size="10" style="fill:blue">xs:extension</text><path d="M880 2040 C900 2040 880 2040 900 2040" style="fill:transparent;stroke:black" /><text x="910" y="2040" font-size="8" style="fill:black">base: xs:string</text><rect x="1120" y="2020" width="200" height="40" style="fill:white;stroke:black;stroke-width:1" /><text x="1130" y="2030" font-size="10" style="fill:blue">xs:attribute</text><path d="M1100 2040 C1120 2040 1100 2040 1120 2040" style="fill:transparent;stroke:black" /><text x="1130" y="2040" font-size="8" style="fill:black">name: longitud</text><text x="1130" y="2050" font-size="8" style="fill:black">type: xs:decimal</text><text x="1130" y="2060" font-size="8" style="fill:black">use: required</text><rect x="1120" y="2070" width="200" height="40" style="fill:white;stroke:black;stroke-width:1" /><text x="1130" y="2080" font-size="10" style="fill:blue">xs:attribute</text><path d="M1100 2040 C1120 2040 1100 2090 1120 2090" style="fill:transparent;stroke:black" /><text x="1130" y="2090" font-size="8" style="fill:black">name: latitud</text><text x="1130" y="2100" font-size="8" style="fill:black">type: xs:decimal</text><text x="1130" y="2110" font-size="8" style="fill:black">use: required</text><rect x="1120" y="2120" width="200" height="40" style="fill:white;stroke:black;stroke-width:1" /><text x="1130" y="2130" font-size="10" style="fill:blue">xs:attribute</text><path d="M1100 2040 C1120 2040 1100 2140 1120 2140" style="fill:transparent;stroke:black" /><text x="1130" y="2140" font-size="8" style="fill:black">name: altitud</text><text x="1130" y="2150" font-size="8" style="fill:black">type: xs:decimal</text><text x="1130" y="2160" font-size="8" style="fill:black">use: required</text><rect x="240" y="2370" width="200" height="40" style="fill:white;stroke:black;stroke-width:1" /><text x="250" y="2380" font-size="10" style="fill:blue">xs:element</text><path d="M220 40 C240 40 220 2390 240 2390" style="fill:transparent;stroke:black" /><text x="250" y="2390" font-size="8" style="fill:black">name: puntosCircuito</text><rect x="460" y="2370" width="200" height="40" style="fill:white;stroke:black;stroke-width:1" /><text x="470" y="2380" font-size="10" style="fill:blue">xs:complexType</text><path d="M440 2390 C460 2390 440 2390 460 2390" style="fill:transparent;stroke:black" /><rect x="680" y="2370" width="200" height="40" style="fill:white;stroke:black;stroke-width:1" /><text x="690" y="2380" font-size="10" style="fill:blue">xs:sequence</text><path d="M660 2390 C680 2390 660 2390 680 2390" style="fill:transparent;stroke:black" /><rect x="900" y="2370" width="200" height="40" style="fill:white;stroke:black;stroke-width:1" /><text x="910" y="2380" font-size="10" style="fill:blue">xs:element</text><path d="M880 2390 C900 2390 880 2390 900 2390" style="fill:transparent;stroke:black" /><text x="910" y="2390" font-size="8" style="fill:black">minOccurs: 1</text><text x="910" y="2400" font-size="8" style="fill:black">maxOccurs: unbounded</text><text x="910" y="2410" font-size="8" style="fill:black">ref: punto</text><rect x="240" y="2570" width="200" height="40" style="fill:white;stroke:black;stroke-width:1" /><text x="250" y="2580" font-size="10" style="fill:blue">xs:element</text><path d="M220 40 C240 40 220 2590 240 2590" style="fill:transparent;stroke:black" /><text x="250" y="2590" font-size="8" style="fill:black">name: punto</text><rect x="460" y="2570" width="200" height="40" style="fill:white;stroke:black;stroke-width:1" /><text x="470" y="2580" font-size="10" style="fill:blue">xs:complexType</text><path d="M440 2590 C460 2590 440 2590 460 2590" style="fill:transparent;stroke:black" /><rect x="680" y="2570" width="200" height="40" style="fill:white;stroke:black;stroke-width:1" /><text x="690" y="2580" font-size="10" style="fill:blue">xs:sequence</text><path d="M660 2590 C680 2590 660 2590 680 2590" style="fill:transparent;stroke:black" /><rect x="900" y="2570" width="200" height="40" style="fill:white;stroke:black;stroke-width:1" /><text x="910" y="2580" font-size="10" style="fill:blue">xs:element</text><path d="M880 2590 C900 2590 880 2590 900 2590" style="fill:transparent;stroke:black" /><text x="910" y="2590" font-size="8" style="fill:black">ref: coordenadas</text><rect x="900" y="2620" width="200" height="40" style="fill:white;stroke:black;stroke-width:1" /><text x="910" y="2630" font-size="10" style="fill:blue">xs:element</text><path d="M880 2590 C900 2590 880 2640 900 2640" style="fill:transparent;stroke:black" /><text x="910" y="2640" font-size="8" style="fill:black">ref: tramo</text><rect x="680" y="2720" width="200" height="40" style="fill:white;stroke:black;stroke-width:1" /><text x="690" y="2730" font-size="10" style="fill:blue">xs:attribute</text><path d="M660 2590 C680 2590 660 2740 680 2740" style="fill:transparent;stroke:black" /><text x="690" y="2740" font-size="8" style="fill:black">name: numeroSector</text><text x="690" y="2750" font-size="8" style="fill:black">type: xs:integer</text><text x="690" y="2760" font-size="8" style="fill:black">use: required</text><rect x="240" y="2870" width="200" height="40" style="fill:white;stroke:black;stroke-width:1" /><text x="250" y="2880" font-size="10" style="fill:blue">xs:element</text><path d="M220 40 C240 40 220 2890 240 2890" style="fill:transparent;stroke:black" /><text x="250" y="2890" font-size="8" style="fill:black">name: tramo</text><rect x="460" y="2870" width="200" height="40" style="fill:white;stroke:black;stroke-width:1" /><text x="470" y="2880" font-size="10" style="fill:blue">xs:complexType</text><path d="M440 2890 C460 2890 440 2890 460 2890" style="fill:transparent;stroke:black" /><rect x="680" y="2870" width="200" height="40" style="fill:white;stroke:black;stroke-width:1" /><text x="690" y="2880" font-size="10" style="fill:blue">xs:simpleContent</text><path d="M660 2890 C680 2890 660 2890 680 2890" style="fill:transparent;stroke:black" /><rect x="900" y="2870" width="200" height="40" style="fill:white;stroke:black;stroke-width:1" /><text x="910" y="2880" font-size="10" style="fill:blue">xs:extension</text><path d="M880 2890 C900 2890 880 2890 900 2890" style="fill:transparent;stroke:black" /><text x="910" y="2890" font-size="8" style="fill:black">base: xs:string</text><rect x="1120" y="2870" width="200" height="40" style="fill:white;stroke:black;stroke-width:1" /><text x="1130" y="2880" font-size="10" style="fill:blue">xs:attribute</text><path d="M1100 2890 C1120 2890 1100 2890 1120 2890" style="fill:transparent;stroke:black" /><text x="1130" y="2890" font-size="8" style="fill:black">name: longitud</text><text x="1130" y="2900" font-size="8" style="fill:black">type: xs:integer</text><text x="1130" y="2910" font-size="8" style="fill:black">use: required</text><rect x="1120" y="2920" width="200" height="40" style="fill:white;stroke:black;stroke-width:1" /><text x="1130" y="2930" font-size="10" style="fill:blue">xs:attribute</text><path d="M1100 2890 C1120 2890 1100 2940 1120 2940" style="fill:transparent;stroke:black" /><text x="1130" y="2940" font-size="8" style="fill:black">name: unidad</text><text x="1130" y="2950" font-size="8" style="fill:black">type: xs:string</text><text x="1130" y="2960" font-size="8" style="fill:black">use: required</text></svg>